<svg width="54" height="29" viewBox="0 0 54 29" fill="none" xmlns="http://www.w3.org/2000/svg">
<path d="M8.70775 29.0003C7.07099 29.0003 5.65617 28.7367 4.46328 28.2096C3.27039 27.6826 2.35491 26.9335 1.71685 25.9626C1.0788 24.9639 0.759766 23.7849 0.759766 22.4255C0.759766 20.4836 1.42557 18.9023 2.75717 17.6817C4.11651 16.4333 6.14164 15.5872 8.83258 15.1433L15.7819 14.0198V18.5972L9.95611 19.6375C9.04064 19.8039 8.3471 20.0952 7.87549 20.5113C7.43162 20.9275 7.20969 21.4962 7.20969 22.2175C7.20969 22.911 7.45937 23.452 7.95872 23.8403C8.48581 24.2287 9.15161 24.4229 9.95611 24.4229C10.9548 24.4229 11.8426 24.201 12.6193 23.7571C13.4238 23.3133 14.0341 22.7168 14.4503 21.9678C14.8941 21.191 15.1161 20.3449 15.1161 19.4294V15.0185C15.1161 13.8256 14.7415 12.8963 13.9925 12.2305C13.2712 11.5369 12.2448 11.1902 10.9132 11.1902H3.25651V5.78055H11.3293C14.4364 5.78055 16.8777 6.58505 18.6531 8.19407C20.4563 9.77534 21.3579 11.9392 21.3579 14.6856V28.5009H15.5322V24.839L16.947 24.5894C15.9483 26.1152 14.7832 27.2387 13.4516 27.96C12.12 28.6535 10.5387 29.0003 8.70775 29.0003Z" fill="#DC3C3C"/>
<path d="M41.9623 11.1902H39.4323V5.78055H41.9623V0.620605H48.2042V5.78055H53.5306V11.1902H48.2042V28.5009H41.9623V11.1902Z" fill="#DC3C3C"/>
<path d="M29.8309 19.4293V15.0184C29.8309 13.8255 30.2054 12.8962 30.9544 12.2304C31.6757 11.5368 32.7021 11.1901 34.0337 11.1901H37.1463V5.78044H33.6176C30.5105 5.78044 28.0693 6.58495 26.2938 8.19396C24.4906 9.77523 23.589 11.9391 23.589 14.6855V28.5008H29.8309V19.4293Z" fill="#DC3C3C"/>
</svg>
