<svg width="29" height="29" viewBox="0 0 29 29" fill="none" xmlns="http://www.w3.org/2000/svg">
<path d="M23.8232 8.9491C30.6116 10.2895 29.4144 24.7653 21.8391 22.9781C21.7184 28.9772 10.4994 31.5047 8.2358 25.7975C1.77823 27.9194 -2.24841 18.1747 2.07636 14.1441C-4.33996 9.49788 5.69434 -2.40225 10.8279 3.8148C14.8226 -2.96503 25.9786 1.18071 23.8232 8.9491Z" fill="#F0386D"/>
<path d="M16.5933 6.57652C21.0465 3.86614 27.7501 12.5172 22.6321 15.3802C25.618 18.774 20.6721 25.8885 16.51 23.8709C14.0028 28.3358 6.80577 24.9724 7.15683 20.5324C1.22701 21.2166 0.744393 9.49862 6.76062 10.3393C5.52842 4.53946 13.8362 1.16355 16.5933 6.57652Z" fill="#84142B"/>
<path d="M18.4505 11.2134C21.8521 11.3855 22.2935 18.5218 18.477 18.1871C18.8421 21.1177 13.5568 23.1423 12.0506 20.523C9.05451 22.0129 6.40408 17.5519 8.22552 15.2829C4.771 13.4731 8.81709 6.9665 11.7571 9.63173C13.2236 6.04643 18.951 7.27631 18.4505 11.2134Z" fill="#430C16"/>
<path d="M13.0334 14.4632C13.0334 14.9894 12.6068 15.4152 12.0814 15.4152C11.5552 15.4152 11.1294 14.9894 11.1294 14.4632C11.1294 13.9378 11.5552 13.5113 12.0814 13.5113C12.6068 13.5113 13.0334 13.9378 13.0334 14.4632Z" fill="white"/>
<path d="M15.0338 15.6347C15.0338 16.1601 14.6081 16.5867 14.0819 16.5867C13.5564 16.5867 13.1299 16.1601 13.1299 15.6347C13.1299 15.1085 13.5564 14.6827 14.0819 14.6827C14.6081 14.6827 15.0338 15.1085 15.0338 15.6347Z" fill="white"/>
<path d="M12.979 16.1873C12.979 16.4769 12.7447 16.712 12.4543 16.712C12.1648 16.712 11.9297 16.4769 11.9297 16.1873C11.9297 15.8978 12.1648 15.6627 12.4543 15.6627C12.7447 15.6627 12.979 15.8978 12.979 16.1873Z" fill="white"/>
<path d="M14.1547 13.9293C14.1547 14.2181 13.9211 14.4516 13.6324 14.4516C13.3444 14.4516 13.1108 14.2181 13.1108 13.9293C13.1108 13.6413 13.3444 13.407 13.6324 13.407C13.9211 13.407 14.1547 13.6413 14.1547 13.9293Z" fill="white"/>
<path d="M15.9023 14.4516C15.9023 14.7411 15.6672 14.9762 15.3777 14.9762C15.0881 14.9762 14.853 14.7411 14.853 14.4516C14.853 14.162 15.0881 13.9269 15.3777 13.9269C15.6672 13.9269 15.9023 14.162 15.9023 14.4516Z" fill="white"/>
<path d="M13.8791 12.6347C13.8791 13.0286 13.56 13.3477 13.1669 13.3477C12.773 13.3477 12.4539 13.0286 12.4539 12.6347C12.4539 12.2416 12.773 11.9225 13.1669 11.9225C13.56 11.9225 13.8791 12.2416 13.8791 12.6347Z" fill="white"/>
</svg>
